<svg viewBox="0 0 800 500" xmlns="http://www.w3.org/2000/svg" preserveAspectRatio="xMaxYMid slice">
  <g fill="none" stroke="#c99a3e" stroke-width="1.1" opacity="0.35">
    <path d="M520 -20 C 640 60, 640 140, 540 210 C 440 280, 460 360, 580 430 C 660 480, 700 500, 760 520"/>
    <path d="M580 -30 C 700 50, 700 130, 600 200 C 500 270, 520 350, 640 420 C 720 470, 760 490, 820 510"/>
    <path d="M460 -10 C 580 70, 580 150, 480 220 C 380 290, 400 370, 520 440 C 600 490, 640 510, 700 530"/>
    <path d="M400 0 C 520 80, 520 160, 420 230 C 320 300, 340 380, 460 450 C 540 500, 580 520, 640 540"/>
    <path d="M340 10 C 460 90, 460 170, 360 240 C 260 310, 280 390, 400 460 C 480 510, 520 530, 580 550"/>
  </g>
  <g fill="none" stroke="#4c6b45" stroke-width="1.1" opacity="0.25">
    <path d="M660 -40 C 780 40, 780 120, 680 190 C 580 260, 600 340, 720 410 C 800 460, 840 480, 900 500"/>
    <path d="M720 -50 C 840 30, 840 110, 740 180 C 640 250, 660 330, 780 400 C 860 450, 900 470, 960 490"/>
  </g>
</svg>
